<?xml version="1.0" encoding="iso-8859-1"?>
<!-- Generator: Adobe Illustrator 19.0.0, SVG Export Plug-In . SVG Version: 6.00 Build 0)  -->
<svg version="1.1" id="Capa_1" xmlns="http://www.w3.org/2000/svg" xmlns:xlink="http://www.w3.org/1999/xlink" x="0px" y="0px"
	 viewBox="0 0 512 512" style="enable-background:new 0 0 512 512;" xml:space="preserve">
<path style="fill:#B9D8F4;" d="M275.553,512h-39.106c-30.458,0-55.378-24.92-55.378-55.378v-79.015
	c0-30.458,24.92-55.378,55.378-55.378h39.106c30.458,0,55.378,24.92,55.378,55.378v79.015C330.931,487.08,306.011,512,275.553,512z"
	/>
<path style="fill:#96C8EF;" d="M222.983,456.622v-79.015c0-29.988,24.16-54.589,53.974-55.343c-0.468-0.011-0.933-0.036-1.404-0.036
	h-39.106c-30.458,0-55.378,24.92-55.378,55.378v79.015c0,30.458,24.92,55.378,55.378,55.378h39.106c0.471,0,0.936-0.024,1.404-0.036
	C247.144,511.21,222.983,486.609,222.983,456.622z"/>
<path style="fill:#D1E7F8;" d="M367.546,357.861c-2.295-4.578-2.502-9.909-0.843-14.753c4.092-11.944,6.307-24.758,6.287-38.094
	c-0.093-63.974-52.261-116.81-116.991-116.81s-116.898,52.836-116.991,116.81c-0.02,13.336,2.195,26.15,6.287,38.094
	c1.66,4.845,1.453,10.176-0.843,14.753c-3.481,6.942-5.445,14.776-5.445,23.072c0,44.895,36.603,50.833,52.056,51.276
	c4.124,0.118,7.744,2.778,9.144,6.659l1.592,4.412c1.936,5.366,7.027,8.942,12.731,8.942h82.937c5.704,0,10.796-3.577,12.731-8.942
	l1.592-4.412c1.4-3.881,5.02-6.541,9.144-6.659c15.454-0.443,52.056-6.381,52.056-51.276
	C372.992,372.637,371.027,364.803,367.546,357.861z"/>
<path style="fill:#B9D8F4;" d="M204.606,358.43c-40.373-68.77-19.667-125.193,5.066-160.62
	c-41.441,18.013-70.593,59.373-70.663,107.202c-0.02,13.336,2.195,26.15,6.287,38.093c1.685,4.92,1.336,10.347-0.969,15.01
	c-3.402,6.879-5.318,14.622-5.318,22.816c0,44.789,36.431,50.805,51.947,51.273c4.163,0.126,7.84,2.744,9.253,6.662l1.591,4.411
	c1.936,5.366,7.027,8.943,12.731,8.943h33.485c0-2.047,0.001-3.992,0.003-5.796c0.006-6.992-3.766-13.471-9.898-16.83
	c-30.194-16.54-31.472-47.579-30.853-60.395C207.451,365.426,206.519,361.69,204.606,358.43z"/>
<path style="fill:#57565C;" d="M273.033,411.578c0,9.407-7.626,11.356-17.033,11.356c-9.407,0-17.033-1.948-17.033-11.356
	c0-9.407,7.626-31.794,17.033-31.794C265.407,379.783,273.033,402.171,273.033,411.578z"/>
<path style="fill:#3E3D42;" d="M256,411.577c0-6.304,3.426-18.428,8.517-25.746c-2.505-3.604-5.413-6.048-8.517-6.048
	c-9.407,0-17.033,22.388-17.033,31.794c0,9.408,7.625,11.356,17.033,11.356c3.106,0,6.009-0.221,8.517-0.845
	C259.431,420.824,256,417.879,256,411.577z"/>
<g>
	<path style="fill:#57565C;" d="M206.032,389.756c-14.325,5.073-30.049-2.428-35.121-16.753
		c-5.073-14.325,2.428-30.049,16.753-35.121c14.325-5.072,42.583-2.01,47.654,12.315
		C240.391,364.522,220.357,384.683,206.032,389.756z"/>
	<path style="fill:#57565C;" d="M305.97,389.756c14.325,5.073,30.049-2.428,35.121-16.753c5.072-14.325-2.428-30.049-16.753-35.121
		c-14.325-5.073-42.583-2.01-47.654,12.315C271.612,364.522,291.646,384.683,305.97,389.756z"/>
</g>
<g>
	<path style="fill:#3E3D42;" d="M195.1,377.248c-5.073-14.325,2.428-30.049,16.753-35.121c3.607-1.277,8.097-2.037,12.877-2.232
		c-10.957-5.143-27.269-5.482-37.066-2.012c-14.325,5.073-21.825,20.796-16.753,35.121c4.914,13.877,19.823,21.349,33.772,17.193
		C200.413,387.045,197.005,382.628,195.1,377.248z"/>
	<path style="fill:#3E3D42;" d="M300.872,354.441c3.206-9.055,15.677-13.606,28.036-14.449c-1.433-0.825-2.956-1.539-4.571-2.111
		c-14.325-5.073-42.583-2.009-47.654,12.316c-5.073,14.325,14.961,34.486,29.286,39.559c5.586,1.978,11.381,2.037,16.678,0.532
		C309.844,382.35,296.647,366.375,300.872,354.441z"/>
</g>
<path style="fill:#CC7400;" d="M289.454,418.227c-11.648-8.428-24.995-8.017-33.454,2.399c-8.459-10.417-21.806-10.827-33.454-2.399
	c-16.186,11.711-19.599,23.34-41.071,32.202c-4.808,1.984-4.779,8.816,0.043,10.766c13.899,5.62,37.022,11.597,59.936,2.514
	c5.441-2.157,10.716-6.649,14.546-12.063c3.83,5.416,9.104,9.906,14.546,12.063c22.914,9.083,46.037,3.106,59.936-2.514
	c4.821-1.949,4.85-8.782,0.043-10.766C309.052,441.567,305.641,429.938,289.454,418.227z"/>
<g>
	<path style="fill:#AA6100;" d="M222.546,418.224c-16.186,11.711-19.599,23.34-41.071,32.202c-4.808,1.984-4.779,8.816,0.043,10.766
		c5.804,2.347,13.218,4.751,21.551,6.1c7.623-3.751,15.981-10.452,21.662-22.428c13.028-27.471,23.288-30.597,23.288-30.597
		C240.304,410.657,230.981,412.122,222.546,418.224z"/>
	<path style="fill:#AA6100;" d="M270.546,463.709c19.546,7.747,39.237,4.537,53.232-0.061
		c-23.553-1.961-42.518-13.519-52.998-21.461c-4.514-3.421-11.047-1.464-12.878,3.896l-1.901,5.562
		C259.83,457.06,265.104,461.551,270.546,463.709z"/>
</g>
<path style="fill:#FFE477;" d="M265.291,493.238c0,5.131-4.16,9.291-9.291,9.291c-5.131,0-9.291-4.16-9.291-9.291
	s4.16-21.174,9.291-21.174C261.132,472.063,265.291,488.106,265.291,493.238z"/>
<path style="fill:#00DDC2;" d="M262.519,266.257c18.006-43.47-31.044-43.47-13.038,0c-18.006-43.47-52.689-8.786-9.219,9.219
	c-43.47-18.006-43.47,31.044,0,13.038c-43.47,18.005-8.786,52.689,9.219,9.219c-18.006,43.47,31.045,43.47,13.038,0
	c18.006,43.47,52.689,8.786,9.219-9.219c43.47,18.005,43.47-31.044,0-13.038C315.208,257.472,280.525,222.788,262.519,266.257z"/>
<circle style="fill:#FFE477;" cx="256" cy="281.992" r="16.745"/>
<g>
	<path style="fill:#FF3F62;" d="M172.999,304.548c4.995-2.387,23.252-6.136,25.639-1.14c2.387,4.995-12,16.843-16.995,19.23
		c-4.995,2.387-10.98,0.272-13.367-4.723C165.889,312.919,168.003,306.935,172.999,304.548z"/>
	<path style="fill:#FF3F62;" d="M339.002,304.548c-4.995-2.387-23.252-6.136-25.639-1.14c-2.387,4.995,12,16.843,16.995,19.23
		c4.995,2.387,10.98,0.272,13.367-4.723C346.111,312.919,343.997,306.935,339.002,304.548z"/>
</g>
<path style="fill:#FFB655;" d="M321.401,47.803C305.397-4.144,256,0.083,256,0.083s-49.397-4.228-65.401,47.719
	c-16.004,51.948-32.662,167.723-32.662,167.723h196.127C354.064,215.525,337.405,99.75,321.401,47.803z"/>
<path style="fill:#FFA733;" d="M288.03,6.762C271.552-1.246,256,0.083,256,0.083s-49.397-4.228-65.401,47.719
	c-16.004,51.948-32.662,167.723-32.662,167.723h64.059c0,0,16.658-115.776,32.662-167.723
	C261.683,25.002,275.14,13.026,288.03,6.762z"/>
<path style="fill:#FFC477;" d="M474.129,163.812H37.872c-14.89,0-26.451,13.187-24.276,27.917
	c4.719,31.965,19.658,55.003,32.991,69.802c11.788,13.085,28.632,20.466,46.245,20.466H419.17c17.612,0,34.455-7.381,46.245-20.466
	c13.333-14.799,28.271-37.836,32.99-69.802C500.58,176.998,489.019,163.812,474.129,163.812z"/>
<path style="fill:#FFB655;" d="M132.148,163.812H37.872c-14.89,0-26.451,13.187-24.276,27.917
	c4.719,31.965,19.658,55.003,32.991,69.802c11.788,13.085,28.632,20.466,46.244,20.466h137.801
	C125.636,281.996,132.148,163.812,132.148,163.812z"/>
<path style="fill:#FF3F62;" d="M474.129,163.812H37.872c-14.89,0-26.451,13.186-24.276,27.917
	c2.696,18.26,8.731,33.594,15.892,46.155h453.024c7.161-12.562,13.196-27.896,15.892-46.155
	C500.58,176.998,489.019,163.812,474.129,163.812z"/>
<path style="fill:#FF0C38;" d="M132.13,163.812H37.872c-14.89,0-26.451,13.186-24.276,27.917
	c2.696,18.26,8.731,33.594,15.892,46.155h119.864C130.991,206.1,131.964,167.954,132.13,163.812z"/>
<path style="fill:#FF9478;" d="M474.129,163.812H37.872c-14.89,0-26.451,13.186-24.276,27.917c0.198,1.338,0.439,2.637,0.671,3.945
	l18.65,13.937c4.687,3.503,11.121,3.503,15.807,0l20.051-14.985c4.687-3.503,11.121-3.503,15.807,0l20.052,14.985
	c4.687,3.503,11.121,3.503,15.807,0l20.053-14.986c4.687-3.503,11.12-3.503,15.807,0l20.053,14.986
	c4.687,3.503,11.121,3.503,15.808-0.001l20.047-14.984c4.687-3.504,11.121-3.504,15.808,0l20.051,14.985
	c4.687,3.503,11.121,3.503,15.808,0l20.052-14.986c4.687-3.503,11.12-3.503,15.807,0l20.058,14.987
	c4.686,3.503,11.12,3.503,15.806,0l20.059-14.988c4.686-3.502,11.12-3.502,15.806,0l20.059,14.988
	c4.686,3.502,11.119,3.502,15.806,0l20.061-14.989c4.686-3.502,11.119-3.502,15.805-0.001l20.066,14.991
	c4.686,3.502,11.118,3.502,15.804,0l18.663-13.943c0.233-1.306,0.473-2.605,0.671-3.943
	C500.58,176.998,489.019,163.812,474.129,163.812z"/>
<path style="fill:#FF7956;" d="M37.872,163.813c-14.89,0-26.451,13.186-24.276,27.917c0.198,1.338,0.439,2.637,0.671,3.945
	l18.65,13.937c4.687,3.503,11.121,3.503,15.807,0l20.051-14.985c4.687-3.503,11.121-3.503,15.807,0l20.052,14.985
	c4.687,3.503,11.121,3.503,15.807,0l14.662-10.957c-3.8-19.567-2.96-34.843-2.96-34.843H37.872V163.813z"/>
<path style="fill:#91DC5A;" d="M190.599,47.803c-2.166,7.033-4.345,15.244-6.493,24.171h143.789
	c-2.148-8.928-4.327-17.138-6.493-24.171c-1.934-6.277-4.359-11.726-7.121-16.468H197.72
	C194.958,36.077,192.533,41.526,190.599,47.803z"/>
<path style="fill:#6DC82A;" d="M254.658,47.802c1.934-6.276,4.357-11.727,7.118-16.468h-64.057
	c-2.763,4.743-5.187,10.192-7.121,16.468c-2.167,7.033-4.345,15.244-6.493,24.171h64.059
	C250.313,63.046,252.491,54.836,254.658,47.802z"/>
<path style="fill:#FFE477;" d="M170.274,139.785h171.452c-2.398-13.361-5.032-27.271-7.798-40.64H178.073
	C175.306,112.515,172.672,126.424,170.274,139.785z"/>
<path style="fill:#FFD422;" d="M170.274,139.785h64.059c2.398-13.36,5.032-27.271,7.798-40.64h-64.059
	C175.306,112.515,172.672,126.424,170.274,139.785z"/>
<g>
	<circle style="fill:#00DDC2;" cx="112.681" cy="188.029" r="7.726"/>
	<circle style="fill:#00DDC2;" cx="184.763" cy="188.029" r="7.726"/>
	<circle style="fill:#00DDC2;" cx="255.815" cy="188.029" r="7.726"/>
	<circle style="fill:#00DDC2;" cx="327.897" cy="188.029" r="7.726"/>
	<circle style="fill:#00DDC2;" cx="399.968" cy="188.029" r="7.726"/>
	<circle style="fill:#00DDC2;" cx="471.02" cy="188.029" r="7.726"/>
	<circle style="fill:#00DDC2;" cx="40.6" cy="188.029" r="7.726"/>
</g>
<g>
</g>
<g>
</g>
<g>
</g>
<g>
</g>
<g>
</g>
<g>
</g>
<g>
</g>
<g>
</g>
<g>
</g>
<g>
</g>
<g>
</g>
<g>
</g>
<g>
</g>
<g>
</g>
<g>
</g>
</svg>
